<?xml version="1.0" encoding="UTF-8" standalone="no" ?>
<!DOCTYPE svg PUBLIC "-//W3C//DTD SVG 1.1//EN" "http://www.w3.org/Graphics/SVG/1.1/DTD/svg11.dtd">
<svg xmlns="http://www.w3.org/2000/svg" xmlns:xlink="http://www.w3.org/1999/xlink" version="1.1" width="500" height="200" viewBox="0 0 500 200" xml:space="preserve">
<desc>Created with Fabric.js 5.2.4</desc>
<defs>
</defs>
<g transform="matrix(1 0 0 1 250 100)" id="45f12e1f-a406-46c2-8664-04d886744733"  >
<rect style="stroke: none; stroke-width: 1; stroke-dasharray: none; stroke-linecap: butt; stroke-dashoffset: 0; stroke-linejoin: miter; stroke-miterlimit: 4; fill: rgb(255,255,255); fill-rule: nonzero; opacity: 1; visibility: hidden;" vector-effect="non-scaling-stroke"  x="-250" y="-100" rx="0" ry="0" width="500" height="200" />
</g>
<g transform="matrix(Infinity NaN NaN Infinity 0 0)" id="a6cd26a8-ed75-4148-a984-16b046207211"  >
</g>
<g transform="matrix(0.45 0 0 0.45 250 100)"  >
<g style="" vector-effect="non-scaling-stroke"   >
		<g transform="matrix(1.91 0 0 1.91 -46.83 12.32)"  >
<path style="stroke: none; stroke-width: 1; stroke-dasharray: none; stroke-linecap: butt; stroke-dashoffset: 0; stroke-linejoin: miter; stroke-miterlimit: 4; fill: rgb(255,255,255); fill-rule: nonzero; opacity: 1;" vector-effect="non-scaling-stroke"  transform=" translate(-184.56, -215.47)" d="M 367.348 234.786 C 322.672 183.377 252.904 202.961 197.21200000000002 221.321 C 164.776 231.725 131.728 243.966 96.84400000000002 244.578 C 52.78000000000002 245.189 25.852000000000018 212.14100000000002 7.492000000000019 176.03300000000002 C 5.656000000000018 172.36100000000002 -1.075999999999981 174.80900000000003 0.14800000000001834 179.09300000000002 C 25.852000000000018 247.02500000000003 77.87200000000003 267.834 145.80400000000003 251.30900000000003 C 216.18300000000005 234.17300000000003 294.519 185.82500000000005 358.168 243.35300000000004 C 364.287 249.473 372.855 240.905 367.348 234.786 z" stroke-linecap="round" />
</g>
		<g transform="matrix(1.91 0 0 1.91 -20.68 -54.23)"  >
<path style="stroke: none; stroke-width: 1; stroke-dasharray: none; stroke-linecap: butt; stroke-dashoffset: 0; stroke-linejoin: miter; stroke-miterlimit: 4; fill: rgb(255,255,255); fill-rule: nonzero; opacity: 1;" vector-effect="non-scaling-stroke"  transform=" translate(-198.22, -180.69)" d="M 383.871 201.737 C 337.359 144.821 269.428 157.06099999999998 206.39199999999997 177.257 C 172.73199999999997 188.273 139.07199999999997 201.737 102.96399999999997 204.185 C 61.95999999999997 207.245 35.64399999999998 182.765 19.119999999999976 147.269 C 17.283999999999978 142.985 9.327999999999976 146.04500000000002 11.163999999999977 150.329 C 73.58799999999998 321.078 276.159 91.577 373.46799999999996 210.918 C 380.199 218.261 389.38 208.469 383.871 201.737 z" stroke-linecap="round" />
</g>
		<g transform="matrix(1.91 0 0 1.91 295.12 8.66)"  >
<path style="stroke: none; stroke-width: 1; stroke-dasharray: none; stroke-linecap: butt; stroke-dashoffset: 0; stroke-linejoin: miter; stroke-miterlimit: 4; fill: rgb(255,255,255); fill-rule: nonzero; opacity: 1;" vector-effect="non-scaling-stroke"  transform=" translate(-363.25, -213.56)" d="M 388.155 156.449 C 382.647 150.329 372.85499999999996 158.28500000000003 377.13899999999995 165.01700000000002 C 390.60299999999995 185.82500000000002 416.919 217.038 394.275 240.90500000000003 C 375.916 260.48900000000003 338.58399999999995 261.71400000000006 313.491 262.326 C 306.76 262.326 306.76 272.72900000000004 313.491 272.72900000000004 C 344.703 273.34100000000007 387.544 272.72900000000004 408.964 246.41400000000004 C 431.607 218.874 407.128 177.869 388.155 156.449 z" stroke-linecap="round" />
</g>
</g>
</g>
</svg>